<?xml version="1.0" encoding="utf-8"?>
<!-- Generator: Adobe Illustrator 26.0.0, SVG Export Plug-In . SVG Version: 6.00 Build 0)  -->
<svg version="1.1" id="图层_1" xmlns="http://www.w3.org/2000/svg" xmlns:xlink="http://www.w3.org/1999/xlink" x="0px" y="0px"
	 viewBox="0 0 32 32" style="enable-background:new 0 0 32 32;" xml:space="preserve">
<style type="text/css">
	.st0{display:none;fill:none;}
	.st1{fill:#2285E2;}
	.st2{display:none;fill:#F5C762;}
	.st3{fill:#7FBDF8;}
</style>
<g>
	<g>
		<circle class="st0" cx="16" cy="12.9" r="6"/>
		<path class="st1" d="M16,20.4c2.4,0,4.5,1.3,5.7,3.2c2.6-3.8,5-8.1,5-10.9c0-6-4.6-10.8-10.6-10.8S5.5,6.8,5.3,12.8
			c0,2.8,2.4,7.2,5,11C11.4,21.7,13.6,20.4,16,20.4z M16,6.9c3.3,0,6,2.7,6,6s-2.7,6-6,6s-6-2.7-6-6S12.7,6.9,16,6.9z"/>
		<path class="st2" d="M17.7,29.2l-0.2,0.2c-0.8,0.8-2.4,0.8-3.2-0.2c-1.1-1.4-2.6-3.3-4-5.5c-0.6,1-0.9,2.1-0.9,3.3
			c0,3.6,3,6.6,6.6,6.6s6.6-3,6.6-6.6c0-1.2-0.3-2.4-0.9-3.3C20.2,25.8,18.8,27.7,17.7,29.2z"/>
		<path class="st3" d="M17.5,29.4l0.2-0.2c1.1-1.4,2.5-3.4,4-5.5c-1.1-1.9-3.3-3.2-5.7-3.2c-2.4,0-4.6,1.3-5.7,3.3
			c1.4,2.1,2.9,4.1,4,5.5C15.1,30.2,16.7,30.2,17.5,29.4z"/>
	</g>
	<circle class="st3" cx="16" cy="12.9" r="4"/>
</g>
</svg>
