<?xml version="1.0" encoding="utf-8"?>
<!-- Generator: Adobe Illustrator 26.0.0, SVG Export Plug-In . SVG Version: 6.00 Build 0)  -->
<svg version="1.1" id="图层_1" xmlns="http://www.w3.org/2000/svg" xmlns:xlink="http://www.w3.org/1999/xlink" x="0px" y="0px"
	 viewBox="0 0 32 32" style="enable-background:new 0 0 32 32;" xml:space="preserve">
<style type="text/css">
	.st0{fill:#2285E2;}
</style>
<g>
	<path class="st0" d="M30.8,10.2h-7.2V6.7c0-2,1.6-3.6,3.6-3.6c2,0,3.6,1.6,3.6,3.6L30.8,10.2L30.8,10.2z M25.1,8.6h4.1V6.7
		c0-1.1-0.9-2-2-2c-1.1,0-2,0.9-2,2L25.1,8.6L25.1,8.6z M21.5,28.9c-2,0-3.6-1.6-3.6-3.6v-1.7h1.6v1.7c0,1.1,0.9,2,2,2s2-0.9,2-2
		v-1.7h1.6v1.7C25.1,27.3,23.5,28.9,21.5,28.9z"/>
	<path class="st0" d="M22.1,28.9H4.3c-1.7,0-3.1-1.4-3.1-3.1v-3.1h18.2v1.6H2.8v1.5c0,0.8,0.7,1.5,1.5,1.5h17.8
		c0.8,0,1.5-0.7,1.5-1.5V7.9h1.6v17.9C25.1,27.5,23.8,28.9,22.1,28.9L22.1,28.9z"/>
	<path class="st0" d="M18.7,24.3H5.3V5.7c0-1.4,1.2-2.6,2.6-2.6h18.9v1.6H8c-0.6,0-1.1,0.5-1.1,1.1v17h11.8L18.7,24.3L18.7,24.3z"/>
	<path class="st0" d="M23.1,3.9H7.4c-0.7,0-1.2,0.5-1.2,1.2v17.2c0,0.7,0.5,1.2,1.2,1.2l11.7,0.5c0.3,0-0.3,2.7,0.9,3.5
		c1.3,0.9,4.3-0.6,4.3-0.9V5.1C24.3,4.5,23.8,3.9,23.1,3.9z M9.4,9.1h5.3c0.7,0,1.3,0.6,1.3,1.3c0,0.7-0.6,1.3-1.3,1.3H9.4
		c-0.7,0-1.3-0.6-1.3-1.3C8,9.7,8.6,9.1,9.4,9.1z M18.3,17.1H9.4c-0.7,0-1.3-0.6-1.3-1.3c0-0.7,0.6-1.3,1.3-1.3h8.9
		c0.7,0,1.3,0.6,1.3,1.3S19,17.1,18.3,17.1L18.3,17.1z"/>
	<path class="st0" d="M21.1,28.4c-0.5,0-1-0.1-1.4-0.4c-1-0.7-1-2.3-1.1-3.2v-0.3L7.4,24.1c-0.9,0-1.7-0.8-1.7-1.7V5.1
		c0-0.9,0.8-1.7,1.7-1.7h15.8c0.9,0,1.7,0.8,1.7,1.7v21.6c0,0.4-0.3,0.6-0.9,1C23.2,28,22.1,28.4,21.1,28.4L21.1,28.4z M19.1,23.5
		c0.6,0,0.6,0.6,0.6,1.3c0,0.7,0.1,2,0.6,2.4c0.8,0.6,3-0.3,3.5-0.7V5.1c0-0.4-0.3-0.7-0.7-0.7H7.4C7,4.5,6.7,4.8,6.7,5.1v17.2
		C6.7,22.7,7,23,7.4,23L19.1,23.5L19.1,23.5z M19,24.6 M18.3,17.6H9.4c-1,0-1.8-0.8-1.8-1.8s0.8-1.8,1.8-1.8h8.9
		c1,0,1.8,0.8,1.8,1.8S19.3,17.6,18.3,17.6L18.3,17.6z M9.4,15c-0.4,0-0.8,0.4-0.8,0.8c0,0.4,0.4,0.8,0.8,0.8h8.9
		c0.4,0,0.8-0.4,0.8-0.8c0-0.4-0.4-0.8-0.8-0.8L9.4,15L9.4,15z M14.7,12.3H9.4c-1,0-1.8-0.8-1.8-1.8s0.8-1.8,1.8-1.8h5.3
		c1,0,1.8,0.8,1.8,1.8S15.7,12.3,14.7,12.3L14.7,12.3z M9.4,9.6c-0.4,0-0.8,0.4-0.8,0.8c0,0.4,0.4,0.8,0.8,0.8h5.3
		c0.4,0,0.8-0.4,0.8-0.8c0-0.4-0.4-0.8-0.8-0.8C14.7,9.6,9.4,9.6,9.4,9.6z"/>
</g>
</svg>
