<?xml version="1.0" encoding="utf-8"?>
<!-- Generator: Adobe Illustrator 26.0.0, SVG Export Plug-In . SVG Version: 6.00 Build 0)  -->
<svg version="1.1" id="图层_1" xmlns="http://www.w3.org/2000/svg" xmlns:xlink="http://www.w3.org/1999/xlink" x="0px" y="0px"
	 viewBox="0 0 32 32" style="enable-background:new 0 0 32 32;" xml:space="preserve">
<style type="text/css">
	.st0{fill:#0070D9;}
	.st1{fill:#2285E2;}
	.st2{fill:#3E96EA;}
	.st3{fill:#7FBDF8;}
</style>
<g>
	<g>
		<path class="st0" d="M15.1,23.2c0-2.1,0.8-4,2.1-5.4c-0.7-0.1-1.4-0.1-2.1-0.1c-6.7,0-12.2,2.7-12.2,6.1c0,3.4,5.5,6.1,12.2,6.1
			c1.1,0,2.2-0.1,3.2-0.2C16.4,28.2,15.1,25.9,15.1,23.2z"/>
		<path class="st1" d="M15.1,23.2c0-4.4,3.6-8,8-8c0.9,0,1.8,0.1,2.6,0.4c-2.1-1.8-6.1-3.1-10.6-3.1c-6.7,0-12.2,2.7-12.2,6.1
			c0,3.4,5.5,6.1,12.2,6.1c0,0,0.1,0,0.1,0C15.1,24.2,15.1,23.7,15.1,23.2z"/>
		<path class="st2" d="M16,19.5c1.4-2.5,4-4.3,7.1-4.3c1.1,0,2.2,0.2,3.1,0.6c0.6-0.7,1-1.6,1-2.4c0-3.4-5.5-6.1-12.2-6.1
			S2.9,10,2.9,13.4c0,3.4,5.5,6.1,12.2,6.1C15.4,19.5,15.7,19.5,16,19.5z"/>
		<path class="st3" d="M2.9,8.2c0,3.4,5.5,6.1,12.2,6.1s12.2-2.7,12.2-6.1s-5.5-6.1-12.2-6.1S2.9,4.8,2.9,8.2z"/>
	</g>
	<path class="st3" d="M23.1,17.3c-3.3,0-5.9,2.7-5.9,5.9h0c0,3.3,2.7,5.9,5.9,5.9s5.9-2.7,5.9-5.9c0,0,0,0,0,0
		C29.1,20,26.4,17.3,23.1,17.3z M24.4,25.7l-1.1-1.1l0,0L21.8,23L19,25.8l-1.1-1.1l3.9-3.9l0,0l0,0l2.6,2.6l2.5-2.5l1.1,1.1
		L24.4,25.7z"/>
</g>
</svg>
