<?xml version="1.0" encoding="utf-8"?>
<!-- Generator: Adobe Illustrator 26.0.0, SVG Export Plug-In . SVG Version: 6.00 Build 0)  -->
<svg version="1.1" id="图层_1" xmlns="http://www.w3.org/2000/svg" xmlns:xlink="http://www.w3.org/1999/xlink" x="0px" y="0px"
	 viewBox="0 0 32 32" style="enable-background:new 0 0 32 32;" xml:space="preserve">
<style type="text/css">
	.st0{fill:#2285E2;}
</style>
<path class="st0" d="M7.1,1.9h17.8c1.4,0,2.5,1.1,2.5,2.5v22.9c0,1.4-1.1,2.5-2.5,2.5H7.1c-0.7,0-1.3-0.3-1.8-0.7
	c-0.5-0.5-0.7-1.1-0.7-1.8V4.4C4.5,3,5.7,1.9,7.1,1.9z M16,17.2c3.2,0,5.7-2.6,5.7-5.7S19.2,5.7,16,5.7s-5.7,2.6-5.7,5.7
	S12.8,17.2,16,17.2z M8,19.1c-0.5,0-1,0.4-1,1c0,0.5,0.4,1,1,1h10.8c0.5,0,1-0.4,1-1c0-0.5-0.4-1-1-1H8z M8,23.5c-0.5,0-1,0.4-1,1
	s0.4,1,1,1h7c0.5,0,1-0.4,1-1s-0.4-1-1-1H8z M13.8,12.5l-1.5-1.6c-0.1-0.1-0.2-0.3-0.1-0.4c0.1-0.2,0.2-0.3,0.3-0.3l2.1-0.3l1-2
	c0.1-0.2,0.2-0.3,0.4-0.2c0.2,0,0.3,0.1,0.4,0.3l0.9,2l2.1,0.3c0.2,0,0.3,0.1,0.3,0.3c0.1,0.2,0,0.3-0.1,0.4l-1.5,1.6l0.3,2.2
	c0,0.1,0,0.3-0.1,0.4c-0.1,0.1-0.2,0.2-0.4,0.2h0c-0.1,0-0.1,0-0.2-0.1l-1.9-1l-1.9,1c-0.1,0.1-0.3,0.1-0.5,0
	c-0.1-0.1-0.2-0.3-0.2-0.4L13.8,12.5L13.8,12.5z M24.1,19l-4.8,4.7c-0.2,0.2-0.3,0.4-0.4,0.7l-0.2,1.3c0,0.1,0,0.2,0.1,0.3
	s0.2,0.1,0.3,0.1l1.3-0.4c0.2-0.1,0.4-0.2,0.5-0.3l4.8-4.7c0.1-0.1,0.2-0.3,0.2-0.5s-0.1-0.3-0.2-0.5L25,19
	C24.7,18.8,24.3,18.8,24.1,19L24.1,19z"/>
</svg>
