<?xml version="1.0" encoding="utf-8"?>
<!-- Generator: Adobe Illustrator 26.0.0, SVG Export Plug-In . SVG Version: 6.00 Build 0)  -->
<svg version="1.1" id="图层_1" xmlns="http://www.w3.org/2000/svg" xmlns:xlink="http://www.w3.org/1999/xlink" x="0px" y="0px"
	 viewBox="0 0 32 32" style="enable-background:new 0 0 32 32;" xml:space="preserve">
<style type="text/css">
	.st0{fill:#2285E2;}
	.st1{fill:#7FBDF8;}
</style>
<g>
	<path class="st0" d="M29,27.9l-1.3-1.3c0.7-0.9,1-2.1,1-3.3c0-3.1-2.4-5.5-5.3-5.5l0,0c-3,0-5.3,2.5-5.3,5.5c0,3.1,2.4,5.5,5.3,5.5
		c1,0,1.9-0.3,2.7-0.8l1.3,1.4c0.4,0.4,1.1,0.4,1.5,0C29.4,29,29.4,28.3,29,27.9z M23.4,26.6c-1.7,0-3.2-1.5-3.2-3.3
		c0-1.8,1.4-3.3,3.2-3.3v0c1.7,0,3.2,1.5,3.2,3.3C26.6,25.2,25.2,26.6,23.4,26.6z"/>
	<path class="st0" d="M19.8,8.8c-1.3-0.1-2.4-1.1-2.4-2.4V1.8h-13C3.2,1.9,2.1,2.9,2.1,4.2v22.5C2.2,28,3.2,29,4.6,29h13.7
		c-1.8-1.4-2.8-3.6-2.8-5.9c0-4.2,3.5-7.6,7.8-7.6c0.4,0,0.9,0,1.2,0.1V8.8H19.8z M15.8,12.3c0,0.6-0.5,1.1-1.1,1.1H6.6
		c-0.6,0-1.1-0.5-1.1-1.1v0c0-0.6,0.5-1.1,1.1-1.1h8.1C15.3,11.1,15.8,11.6,15.8,12.3L15.8,12.3z M15.8,7.3c0,0.6-0.5,1.1-1.1,1.1
		H6.6C6,8.5,5.5,8,5.5,7.3v0c0-0.6,0.5-1.1,1.1-1.1h8.1C15.3,6.2,15.8,6.7,15.8,7.3L15.8,7.3z"/>
	<path class="st1" d="M18.9,1.8l5.6,4.8h-4.3c-0.7,0-1.3-0.5-1.3-1.1L18.9,1.8L18.9,1.8z"/>
</g>
</svg>
