<?xml version="1.0" encoding="utf-8"?>
<!-- Generator: Adobe Illustrator 26.0.0, SVG Export Plug-In . SVG Version: 6.00 Build 0)  -->
<svg version="1.1" id="图层_1" xmlns="http://www.w3.org/2000/svg" xmlns:xlink="http://www.w3.org/1999/xlink" x="0px" y="0px"
	 viewBox="0 0 32 32" style="enable-background:new 0 0 32 32;" xml:space="preserve">
<style type="text/css">
	.st0{fill:#0070D9;}
</style>
<path class="st0" d="M15.4,3.7c-0.1-0.1-0.2,0-0.2,0l-3.1,25.2l3.3,0.1L15.4,3.7L15.4,3.7z M10,23.7l-0.2-1.5l-0.8,1.2l-1.6,0l1,1.1
	l-0.7,1.4l1.5-0.7l1.1,1l-0.1-1.6l1.4-0.6L10,23.7z M12.8,14.3l-1.7,0.5l-0.8-1.5l-0.5,2.1l-1.8,0.9l1.4,0.3l-0.3,2.1l1.4-1.8
	l1.6,0.5l-0.6-1.7C11.6,15.9,12.8,14.3,12.8,14.3z M5.2,17.8l-0.9,1.2l-1.2,0.2l0.7,0.8l-0.7,1.4l1.2-1l0.8,0.8L5.2,20l1-0.9
	l-1.1-0.1L5.2,17.8z M7.4,13.5l0.5-0.7L7.2,13l-0.4-0.6l-0.3,1l-0.9,0.5L6.3,14l-0.2,0.9L6.8,14l0.7,0.3L7.4,13.5L7.4,13.5z
	 M10.6,10l0.3,0.2l0.2-0.5l0.5-0.4l-0.4-0.1V8.8l-0.4,0.5l-0.6,0.1l0.2,0.4L10,10.3L10.6,10L10.6,10z M25.6,6.2c0,0-2.6-1.6-7.5-0.5
	c0,0,6.2-0.6,7.8,4.2c0,0,1.1,4.8-2.6,8.6c0,0-2.7,3-4.5,3.7L16.5,3.1c0,0-0.2-0.3-0.2,0.2v25.3c0,0,2.9-1,3.2-1.5L19.1,24
	c0,0,8-4,9.6-10.6C28.7,13.4,30.2,8.5,25.6,6.2L25.6,6.2z"/>
</svg>
