<?xml version="1.0" encoding="utf-8"?>
<!-- Generator: Adobe Illustrator 26.0.0, SVG Export Plug-In . SVG Version: 6.00 Build 0)  -->
<svg version="1.1" id="图层_1" xmlns="http://www.w3.org/2000/svg" xmlns:xlink="http://www.w3.org/1999/xlink" x="0px" y="0px"
	 viewBox="0 0 32 32" style="enable-background:new 0 0 32 32;" xml:space="preserve">
<style type="text/css">
	.st0{fill:#2285E2;}
	.st1{fill:#7FBDF8;}
</style>
<g>
	<path class="st0" d="M26.9,10H3.1v17.2c0,1,0.9,1.8,2,1.8h21.9c1.1,0,2-0.8,2-1.8V11.8C28.9,10.8,28,10,26.9,10z M7.7,15.1h12.7
		c0.4,0,0.8,0.4,0.8,1c0,0.6-0.3,1-0.8,1H7.7c-0.4,0-0.8-0.4-0.8-1C6.9,15.6,7.2,15.1,7.7,15.1z M23.1,23H7.8c-0.5,0-0.9-0.4-0.9-1
		s0.4-1,0.9-1h15.3c0.5,0,0.9,0.4,0.9,1S23.6,23,23.1,23z"/>
	<path class="st1" d="M18,9h-15V7.4c0-1.1,0.9-2,2-2h9.8c1.7,0,3.1,1.4,3.1,3.1V9z"/>
</g>
</svg>
