<?xml version="1.0" encoding="utf-8"?>
<!-- Generator: Adobe Illustrator 26.0.0, SVG Export Plug-In . SVG Version: 6.00 Build 0)  -->
<svg version="1.1" id="图层_1" xmlns="http://www.w3.org/2000/svg" xmlns:xlink="http://www.w3.org/1999/xlink" x="0px" y="0px"
	 viewBox="0 0 32 32" style="enable-background:new 0 0 32 32;" xml:space="preserve">
<style type="text/css">
	.st0{fill:#2285E2;}
</style>
<g>
	<path class="st0" d="M28.2,27.3c-0.5,0-0.9-0.4-0.9-0.9V5.7c0-0.4-0.3-0.7-0.7-0.7H6c-0.5,0-0.9-0.5-0.9-1c0-0.5,0.4-0.9,0.9-0.9
		h20.6c1.4,0,2.5,1.1,2.5,2.5v20.6C29.2,26.9,28.7,27.3,28.2,27.3L28.2,27.3z"/>
	<path class="st0" d="M24.1,28.9H4.8c-0.9,0-1.6-0.7-1.6-1.6V8.1c0-0.9,0.7-1.6,1.6-1.6h19.3c0.9,0,1.6,0.7,1.6,1.6v19.3
		C25.7,28.2,25,28.9,24.1,28.9L24.1,28.9z M7.6,21.7c-0.9,0-1.7,0.8-1.7,1.7c0,0.9,0.8,1.7,1.7,1.7c0.9,0,1.7-0.8,1.7-1.7
		c0-0.5-0.2-1-0.6-1.3l2.7-4.4c0.1,0,0.3,0.1,0.5,0.1c0.3,0,0.6-0.1,0.8-0.2l2.9,3.4c-0.2,0.3-0.3,0.6-0.3,1c0,0.6,0.3,1.2,0.8,1.5
		c0.3,0.2,0.5,0.2,0.8,0.2c0.3,0,0.6-0.1,0.8-0.2c0.5-0.3,0.8-0.9,0.8-1.5c0-0.5-0.3-1-0.7-1.4l3-6.9c0.1,0,0.2,0,0.2,0
		c0.9,0,1.7-0.8,1.7-1.7c0-0.9-0.8-1.7-1.7-1.7c-0.9,0-1.7,0.8-1.7,1.7c0,0.6,0.3,1.1,0.8,1.4l-3,6.8c-0.1,0-0.2,0-0.3,0
		c-0.3,0-0.5,0.1-0.7,0.2l-3-3.4c0.2-0.3,0.2-0.6,0.2-0.9c0-0.6-0.3-1.2-0.8-1.5c-0.3-0.2-0.5-0.2-0.8-0.2c-0.3,0-0.6,0.1-0.8,0.2
		c-0.5,0.3-0.8,0.9-0.8,1.5c0,0.4,0.2,0.9,0.5,1.2L8,21.7C7.9,21.7,7.7,21.7,7.6,21.7L7.6,21.7z"/>
</g>
</svg>
