<?xml version="1.0" encoding="utf-8"?>
<!-- Generator: Adobe Illustrator 26.0.0, SVG Export Plug-In . SVG Version: 6.00 Build 0)  -->
<svg version="1.1" id="图层_1" xmlns="http://www.w3.org/2000/svg" xmlns:xlink="http://www.w3.org/1999/xlink" x="0px" y="0px"
	 viewBox="0 0 32 32" style="enable-background:new 0 0 32 32;" xml:space="preserve">
<style type="text/css">
	.st0{fill:#2285E2;}
	.st1{display:none;fill:#BEDEFF;}
	.st2{fill:#FFFFFF;}
	.st3{fill:#7FBDF8;}
</style>
<g>
	<path class="st0" d="M6.3,3h19.5C27.9,3,29,4.1,29,6.3v19.5c0,2.2-1.1,3.2-3.2,3.2H6.3C4.1,29,3,27.9,3,25.7V6.3C3,4.1,4.1,3,6.3,3
		z"/>
	<path class="st1" d="M14.3,22.6c0,0.9,0.7,1.7,1.7,1.7c0.9,0,1.7-0.7,1.7-1.7c0-0.9-0.7-1.7-1.7-1.7c-0.3,0-0.6,0.1-0.8,0.2
		C14.7,21.5,14.3,22.1,14.3,22.6z M8.5,12.6c-0.8-0.5-1.1-1.5-0.6-2.3c0,0,0,0,0,0c0.2-0.4,0.6-0.7,1-0.8c0.4-0.1,0.9-0.1,1.3,0.2
		c0.8,0.4,1.1,1.4,0.6,2.2l0,0c-0.2,0.4-0.6,0.7-1,0.8C9.4,12.9,8.9,12.8,8.5,12.6L8.5,12.6z"/>
	<path class="st2" d="M20.1,9.7c-2.4-1.9-5.7-1.9-8.1,0c0.5,0.9,0.5,2,0,2.9c-0.4,0.7-1,1.2-1.8,1.4c-0.2,0.1-0.5,0.1-0.7,0.1
		c-0.1,0.3-0.1,0.6-0.1,0.9c0,2.7,1.6,5.1,4.1,6.1c0.9-1.4,2.8-1.9,4.2-1c0.4,0.3,0.8,0.6,1,1c2.5-1.1,4-3.5,4-6.1
		c0-0.3,0-0.6-0.1-0.9c-0.2,0-0.5,0-0.7-0.1c-0.8-0.2-1.4-0.7-1.8-1.4C19.5,11.7,19.5,10.6,20.1,9.7L20.1,9.7z M19.3,15
		c0,1.8-1.5,3.3-3.3,3.3s-3.3-1.5-3.3-3.3c0-1.8,1.5-3.3,3.3-3.3C17.8,11.6,19.3,13.1,19.3,15C19.3,14.9,19.3,14.9,19.3,15L19.3,15
		L19.3,15z"/>
	<path class="st3" d="M21.8,9.7c0.8-0.5,1.8-0.2,2.2,0.6c0,0,0,0,0,0l0,0c0.2,0.4,0.3,0.8,0.2,1.3c-0.1,0.4-0.4,0.8-0.8,1
		c-0.8,0.5-1.8,0.3-2.3-0.5c-0.5-0.8-0.3-1.8,0.5-2.3c0,0,0,0,0.1,0C21.7,9.8,21.8,9.7,21.8,9.7z"/>
	<path class="st3" d="M15.2,21.2c0.8-0.5,1.8-0.2,2.2,0.6c0,0,0,0,0,0l0,0c0.2,0.4,0.3,0.8,0.2,1.3c-0.1,0.4-0.4,0.8-0.8,1
		c-0.8,0.5-1.8,0.3-2.3-0.5c-0.5-0.8-0.3-1.8,0.5-2.3c0,0,0,0,0.1,0C15.1,21.2,15.2,21.2,15.2,21.2z"/>
	<path class="st3" d="M8.6,9.7c0.8-0.5,1.8-0.2,2.2,0.6c0,0,0,0,0,0l0,0c0.2,0.4,0.3,0.8,0.2,1.3c-0.1,0.4-0.4,0.8-0.8,1
		c-0.8,0.5-1.8,0.3-2.3-0.5c-0.5-0.8-0.3-1.8,0.5-2.3c0,0,0,0,0.1,0C8.5,9.7,8.5,9.7,8.6,9.7z"/>
</g>
</svg>
