<?xml version="1.0" encoding="utf-8"?>
<!-- Generator: Adobe Illustrator 26.0.0, SVG Export Plug-In . SVG Version: 6.00 Build 0)  -->
<svg version="1.1" id="图层_1" xmlns="http://www.w3.org/2000/svg" xmlns:xlink="http://www.w3.org/1999/xlink" x="0px" y="0px"
	 viewBox="0 0 32 32" style="enable-background:new 0 0 32 32;" xml:space="preserve">
<style type="text/css">
	.st0{clip-path:url(#SVGID_00000084508801167987659770000011953776465259850884_);fill:#2285E2;}
	.st1{display:none;clip-path:url(#SVGID_00000084508801167987659770000011953776465259850884_);fill:#2285E2;}
	.st2{fill:#FFFFFF;}
</style>
<g>
	<g>
		<defs>
			<rect id="SVGID_1_" x="3" y="3" width="25.9" height="26"/>
		</defs>
		<clipPath id="SVGID_00000093891183532198239280000009989859323043986309_">
			<use xlink:href="#SVGID_1_"  style="overflow:visible;"/>
		</clipPath>
		<path style="clip-path:url(#SVGID_00000093891183532198239280000009989859323043986309_);fill:#2285E2;" d="M26.9,28.9H5
			c-1.1,0-2-0.9-2-2V5c0-1.1,0.9-2,2-2h21.9c1.1,0,2,0.9,2,2v21.9C28.9,28,28,28.9,26.9,28.9z"/>
		<path style="display:none;clip-path:url(#SVGID_00000093891183532198239280000009989859323043986309_);fill:#2285E2;" d="M9.9,3
			H22c4.6,0,6.9,2.3,6.9,6.9V22c0,4.6-2.3,6.9-6.9,6.9H9.9C5.3,28.9,3,26.6,3,22V9.9C3,5.3,5.3,3,9.9,3L9.9,3z"/>
		<path style="clip-path:url(#SVGID_00000093891183532198239280000009989859323043986309_);fill:#2285E2;" d="M9.9,3"/>
	</g>
	<path class="st2" d="M9.9,23.3c-0.2,0-0.4-0.2-0.4-0.4V19c0-0.2,0.1-0.4,0.3-0.6s0.4-0.3,0.6-0.3h4c0.3,0.6,1,0.9,1.6,0.9
		c0.7,0,1.3-0.3,1.6-0.9h4c0.2,0,0.4,0.1,0.6,0.3c0.2,0.2,0.3,0.4,0.3,0.6v3.9c0,0.2-0.2,0.4-0.4,0.4H9.9z M14.7,17.3h-3.9V9.5
		c0-0.2,0.2-0.4,0.4-0.4H19c0.2,0,0.4,0.2,0.4,0.4v7.8h-2.2c-0.2,0.5-0.7,0.9-1.3,0.9C15.4,18.2,14.9,17.8,14.7,17.3L14.7,17.3z
		 M13,14.7c0,0.2,0.2,0.4,0.4,0.4h3.5c0.1,0,0.2,0,0.3-0.1c0.1-0.1,0.1-0.2,0.1-0.3c0-0.1,0-0.2-0.1-0.3c-0.1-0.1-0.2-0.1-0.3-0.1
		h-3.5C13.2,14.3,13,14.5,13,14.7L13,14.7z M13,13c0,0.2,0.2,0.4,0.4,0.4h3.5c0.1,0,0.2,0,0.3-0.1c0.1-0.1,0.1-0.2,0.1-0.3
		c0-0.2-0.2-0.4-0.4-0.4h-3.5C13.2,12.5,13,12.7,13,13L13,13z M13,11.2c0,0.2,0.2,0.4,0.4,0.4h3.5c0.2,0,0.4-0.2,0.4-0.4
		c0-0.1,0-0.2-0.1-0.3c-0.1-0.1-0.2-0.1-0.3-0.1h-3.5C13.2,10.8,13,11,13,11.2L13,11.2z M21.5,17.3h-1.2v-6.1l2.6,0.9
		c0.1,0,0.2,0.1,0.2,0.2c0,0.1,0.1,0.2,0,0.3L21.5,17.3L21.5,17.3z M21.5,17.3"/>
</g>
</svg>
