<svg t="1704425028958" class="icon" viewBox="0 0 1024 1024" version="1.1" xmlns="http://www.w3.org/2000/svg" p-id="1922" width="200" height="200"><path d="M106.666667 136.533333v755.2c0 21.333333 17.066667 38.4 38.4 38.4h277.333333c17.066667 0 34.133333-17.066667 34.133333-34.133333s-17.066667-34.133333-34.133333-34.133333H174.933333V371.2h686.933334v68.266667c0 17.066667 17.066667 34.133333 34.133333 34.133333s34.133333-17.066667 34.133333-34.133333V136.533333c0-21.333333-17.066667-38.4-38.4-38.4H145.066667c-21.333333-4.266667-38.4 17.066667-38.4 38.4z m68.266666 166.4V166.4h686.933334v136.533333H174.933333z" fill="currentColor" p-id="1923"></path><path d="M704 494.933333c-123.733333 0-221.866667 98.133333-221.866667 221.866667 0 123.733333 98.133333 221.866667 221.866667 221.866667s221.866667-98.133333 221.866667-217.6c-4.266667-128-102.4-226.133333-221.866667-226.133334z m0 375.466667c-81.066667 0-149.333333-68.266667-149.333333-149.333333s68.266667-149.333333 149.333333-149.333334S853.333333 640 853.333333 721.066667s-68.266667 149.333333-149.333333 149.333333zM230.4 426.666667h290.133333v68.266666H230.4V426.666667z m0 153.6h221.866667v68.266666H230.4v-68.266666z m0 153.6h221.866667v68.266666H230.4v-68.266666z" fill="currentColor" p-id="1924"></path><path d="M584.533333 695.466667h68.266667v93.866666h-68.266667v-93.866666z m93.866667-55.466667h68.266667v149.333333h-68.266667V640z m89.6 29.866667h68.266667v119.466666H768v-119.466666z" fill="currentColor" p-id="1925"></path></svg>
