<svg t="1704425019348" class="icon" viewBox="0 0 1024 1024" version="1.1" xmlns="http://www.w3.org/2000/svg" p-id="1781" width="200" height="200"><path d="M145.066667 157.866667c-25.6 0-46.933333 21.333333-46.933334 46.933333v669.866667c0 25.6 21.333333 46.933333 46.933334 46.933333h733.866666c25.6 0 46.933333-21.333333 46.933334-46.933333v-46.933334c0-17.066667-12.8-29.866667-29.866667-29.866666-17.066667 0-29.866667 12.8-29.866667 29.866666v29.866667H162.133333v-640h115.2V157.866667H145.066667zM925.866667 704V209.066667c0-25.6-21.333333-46.933333-46.933334-46.933334h-128v64h115.2v482.133334c0 17.066667 12.8 29.866667 29.866667 29.866666 17.066667-4.266667 29.866667-17.066667 29.866667-34.133333z" fill="currentColor" p-id="1782"></path><path d="M337.066667 157.866667h418.133333v-12.8c0-25.6-21.333333-46.933333-46.933333-46.933334h-384c-25.6 0-46.933333 21.333333-46.933334 46.933334v17.066666l59.733334-4.266666zM686.933333 226.133333H273.066667v17.066667c0 25.6 21.333333 46.933333 46.933333 46.933333h384c25.6 0 46.933333-21.333333 46.933333-46.933333v-21.333333l-64 4.266666z" fill="currentColor" p-id="1783"></path><path d="M273.066667 157.866667h64v64H273.066667zM686.933333 157.866667h64v64h-64zM601.6 456.533333L512 320l-89.6 136.533333-157.866667 42.666667 102.4 128-8.533333 162.133333 153.6-59.733333 153.6 59.733333-8.533333-162.133333 102.4-128-157.866667-42.666667z m-12.8 226.133334l-76.8-29.866667-76.8 29.866667 4.266667-81.066667-51.2-64 76.8-21.333333 42.666666-68.266667 42.666667 68.266667 76.8 21.333333-51.2 64 12.8 81.066667z" fill="currentColor" p-id="1784"></path></svg>
