<svg t="1704425041128" class="icon" viewBox="0 0 1024 1024" version="1.1" xmlns="http://www.w3.org/2000/svg" p-id="2063" width="200" height="200"><path d="M652.8 234.666667c8.533333 0 12.8 0 17.066667 4.266666l4.266666 4.266667 166.4 136.533333 4.266667 4.266667c8.533333 8.533333 12.8 17.066667 12.8 29.866667v132.266666c0 17.066667-17.066667 34.133333-34.133333 34.133334s-34.133333-12.8-34.133334-29.866667V426.666667L640 302.933333H302.933333v554.666667H512c17.066667 0 34.133333 12.8 34.133333 29.866667v4.266666c0 17.066667-12.8 34.133333-29.866666 34.133334H281.6c-25.6 0-46.933333-21.333333-46.933333-42.666667V281.6c0-25.6 17.066667-46.933333 42.666666-46.933333H652.8z" fill="currentColor" p-id="2064"></path><path d="M614.4 98.133333c17.066667 0 34.133333 12.8 34.133333 29.866667V268.8c0 17.066667-17.066667 34.133333-34.133333 34.133333s-34.133333-12.8-34.133333-29.866666V166.4H166.4v520.533333h102.4c17.066667 0 34.133333 12.8 34.133333 29.866667v4.266667c0 17.066667-12.8 34.133333-29.866666 34.133333h-128c-25.6 0-46.933333-17.066667-46.933334-42.666667V145.066667c0-25.6 17.066667-46.933333 42.666667-46.933334h473.6z" fill="currentColor" p-id="2065"></path><path d="M375.466667 512h311.466666v68.266667H375.466667V512z m0 136.533333h209.066666v68.266667H375.466667v-68.266667zM861.866667 631.466667c8.533333-17.066667 29.866667-21.333333 46.933333-12.8s21.333333 29.866667 12.8 42.666666v4.266667l-102.4 174.933333c-8.533333 17.066667-29.866667 21.333333-46.933333 12.8 0 0-4.266667 0-4.266667-4.266666l-4.266667-4.266667-68.266666-68.266667-51.2 123.733334c-8.533333 17.066667-25.6 25.6-42.666667 21.333333H597.333333c-17.066667-8.533333-25.6-25.6-21.333333-42.666667v-4.266666l68.266667-174.933334c8.533333-17.066667 25.6-25.6 46.933333-21.333333 4.266667 0 4.266667 4.266667 8.533333 4.266667l4.266667 4.266666 72.533333 72.533334 85.333334-128z" fill="currentColor" p-id="2066"></path></svg>
